<svg width="200" height="200" viewBox="0 0 200 200" xmlns="http://www.w3.org/2000/svg">
  <!-- Outer Circle Background -->
  <circle cx="100" cy="100" r="95" fill="#FF8C00" opacity="0.1"/>
  
  <!-- Sun Rays -->
  <g id="rays" transform="translate(100, 60)">
    <!-- Top ray -->
    <path d="M 0,-35 L -5,-20 L 5,-20 Z" fill="#FFD700"/>
    <!-- Top-right ray -->
    <path d="M 25,-25 L 15,-15 L 20,-10 Z" fill="#FFD700"/>
    <!-- Right ray -->
    <path d="M 35,0 L 20,-5 L 20,5 Z" fill="#FFD700"/>
    <!-- Bottom-right ray -->
    <path d="M 25,25 L 20,10 L 15,15 Z" fill="#FFD700"/>
    <!-- Bottom ray -->
    <path d="M 0,35 L 5,20 L -5,20 Z" fill="#FFD700"/>
    <!-- Bottom-left ray -->
    <path d="M -25,25 L -15,15 L -20,10 Z" fill="#FFD700"/>
    <!-- Left ray -->
    <path d="M -35,0 L -20,5 L -20,-5 Z" fill="#FFD700"/>
    <!-- Top-left ray -->
    <path d="M -25,-25 L -20,-10 L -15,-15 Z" fill="#FFD700"/>
  </g>
  
  <!-- Sun/Light Circle -->
  <circle cx="100" cy="60" r="25" fill="#FFA500"/>
  <circle cx="100" cy="60" r="20" fill="#FFD700"/>
  
  <!-- Lamp/Flame -->
  <ellipse cx="100" cy="55" rx="8" ry="12" fill="#FF6B00"/>
  <ellipse cx="100" cy="55" rx="5" ry="8" fill="#FFE135"/>
  
  <!-- Book Base -->
  <g id="book">
    <!-- Book Pages (Open Book) -->
    <path d="M 60,90 Q 80,85 100,90 Q 120,85 140,90 L 138,130 Q 120,125 100,130 Q 80,125 62,130 Z" 
          fill="#FFFFFF" stroke="#003D82" stroke-width="2"/>
    
    <!-- Book Left Page Lines -->
    <line x1="70" y1="100" x2="95" y2="98" stroke="#003D82" stroke-width="1" opacity="0.5"/>
    <line x1="68" y1="105" x2="95" y2="103" stroke="#003D82" stroke-width="1" opacity="0.5"/>
    <line x1="66" y1="110" x2="95" y2="108" stroke="#003D82" stroke-width="1" opacity="0.5"/>
    
    <!-- Book Right Page Lines -->
    <line x1="105" y1="98" x2="130" y2="100" stroke="#003D82" stroke-width="1" opacity="0.5"/>
    <line x1="105" y1="103" x2="132" y2="105" stroke="#003D82" stroke-width="1" opacity="0.5"/>
    <line x1="105" y1="108" x2="134" y2="110" stroke="#003D82" stroke-width="1" opacity="0.5"/>
    
    <!-- Book Spine/Center -->
    <line x1="100" y1="90" x2="100" y2="130" stroke="#003D82" stroke-width="2"/>
    
    <!-- Book Cover Shadow -->
    <path d="M 100,90 Q 120,85 140,90 L 140,135 Q 120,130 100,135 Z" 
          fill="#003D82" opacity="0.2"/>
  </g>
  
  <!-- Water Waves (representing knowledge flow) -->
  <g id="waves" opacity="0.6">
    <path d="M 50,140 Q 75,135 100,140 T 150,140" 
          fill="none" stroke="#0066CC" stroke-width="2"/>
    <path d="M 50,148 Q 75,143 100,148 T 150,148" 
          fill="none" stroke="#0066CC" stroke-width="2"/>
  </g>
  
  <!-- Optional: Small decorative elements -->
  <circle cx="85" cy="75" r="2" fill="#FFD700" opacity="0.7"/>
  <circle cx="115" cy="75" r="2" fill="#FFD700" opacity="0.7"/>
  <circle cx="92" cy="68" r="1.5" fill="#FFD700" opacity="0.7"/>
  <circle cx="108" cy="68" r="1.5" fill="#FFD700" opacity="0.7"/>
</svg>
